<svg width="16" height="16" viewBox="0 0 16 16" fill="none" xmlns="http://www.w3.org/2000/svg">
<g id="external-link (1) 1" clip-path="url(#clip0_21_261)">
<g id="Layer_2_00000135657503555033513230000013559822774202756748_">
<g id="arrow_up_right_to_square">
<path id="Vector" d="M7.50933 16H2.71245C1.90933 16 1.22808 15.7438 0.743701 15.2594C0.259326 14.775 0.00307617 14.0906 0.00307617 13.2844C-4.88281e-05 9.80938 -4.88281e-05 6.67188 0.00307617 3.69063C0.00307617 2.8875 0.262451 2.20625 0.749951 1.725C1.23745 1.24375 1.9187 0.987503 2.72495 0.987503H5.91245C6.30308 0.987503 6.62183 1.10313 6.83745 1.32188C7.0312 1.51563 7.1312 1.78438 7.12808 2.09688C7.12183 2.75938 6.65308 3.18438 5.92808 3.1875H3.74683H2.73745C2.29995 3.1875 2.19683 3.29063 2.19683 3.73438V13.2594C2.19683 13.7 2.29995 13.8 2.74058 13.8H7.50308C7.50308 13.8 10.6781 13.8 12.2656 13.8C12.7062 13.8 12.8093 13.7 12.8093 13.2563C12.8093 12.7344 12.8093 12.2125 12.8093 11.6906C12.8093 11.15 12.8093 10.6094 12.8093 10.0688C12.8093 9.34375 13.2406 8.87188 13.9031 8.86875H13.9093C14.575 8.86875 15.0062 9.33438 15.0062 10.0563V10.3563C15.0093 11.3344 15.0093 12.3469 15.0062 13.3406C15.0031 14.1125 14.7437 14.775 14.2562 15.2563C13.7687 15.7375 13.1062 15.9938 12.3312 15.9969C11.7 15.9969 11.0687 15.9969 10.4406 15.9969H7.50933V16Z" fill="white"/>
<path id="Vector_2" d="M7.03089 10.0875C6.65901 10.0875 6.29339 9.84063 6.12151 9.475C5.90901 9.02188 5.99964 8.53125 6.36526 8.15938C6.82151 7.69688 7.29026 7.23125 7.74339 6.78125L8.22464 6.30312L9.77776 4.75938C10.6121 3.93125 11.4434 3.10312 12.2746 2.27187C12.2903 2.25625 12.3059 2.24062 12.3215 2.22187C11.8153 2.2125 10.7184 2.20625 10.109 2.20312C9.76214 2.20312 9.46839 2.09063 9.26214 1.87812C9.06526 1.67812 8.96214 1.40313 8.96526 1.0875C8.97151 0.440625 9.43089 0.00625 10.1059 0.003125C10.9371 0 11.7621 0 12.5903 0C13.4309 0 14.209 0 14.9715 0.003125C15.6496 0.003125 16.0903 0.4375 16.0934 1.10625C16.0996 2.77813 16.0996 4.43438 16.0934 6.03438C16.0903 6.67813 15.6403 7.13125 14.9996 7.13125C14.359 7.13125 13.909 6.68125 13.9028 6.04063C13.8996 5.7125 13.8965 5.20312 13.8934 4.70937C13.8903 4.34687 13.8903 4 13.8871 3.76875C13.8621 3.79062 13.8403 3.8125 13.8184 3.83437C13.3371 4.31875 12.8559 4.8 12.3746 5.28438C10.9559 6.70938 9.49026 8.18437 8.04026 9.625C7.81526 9.84375 7.53401 9.99688 7.23089 10.0688C7.16214 10.0813 7.09651 10.0875 7.03089 10.0875Z" fill="white"/>
</g>
</g>
</g>
<defs>
<clipPath id="clip0_21_261">
<rect width="16" height="16" fill="white"/>
</clipPath>
</defs>
</svg>
